<svg width="18" height="17" viewBox="0 0 18 17" fill="none" xmlns="http://www.w3.org/2000/svg">
<path d="M5.18416 16.9776C5.63856 16.9776 5.94836 16.7401 6.50602 16.2341L9.27367 13.7556H14.1274C16.6678 13.7556 18 12.3821 18 9.88296V3.87265C18 1.37351 16.6678 0 14.1274 0H3.87264C1.3322 0 0 1.37351 0 3.87265V9.88296C0 12.3821 1.3322 13.7556 3.87264 13.7556H4.17212V15.8107C4.17212 16.5232 4.53357 16.9776 5.18416 16.9776ZM5.56627 15.284V12.9604C5.56627 12.4544 5.38039 12.2685 4.87436 12.2685H3.87264C2.20998 12.2685 1.4871 11.4733 1.4871 9.88296V3.87265C1.4871 2.29261 2.20998 1.49742 3.87264 1.49742H14.1274C15.79 1.49742 16.5129 2.29261 16.5129 3.87265V9.88296C16.5129 11.4733 15.79 12.2685 14.1274 12.2685H9.19106C8.69536 12.2685 8.43718 12.3408 8.10672 12.6919L5.56627 15.284Z" fill="#2D2753"/>
</svg>
