<svg width="18" height="17" viewBox="0 0 18 17" fill="none" xmlns="http://www.w3.org/2000/svg">
<path d="M0 5.55022C0 9.36306 3.19081 13.1166 8.17447 16.3219C8.4385 16.498 8.77829 16.6685 9.00003 16.6685C9.22968 16.6685 9.55997 16.498 9.82558 16.3219C14.8077 13.1166 18 9.36306 18 5.55022C18 2.28059 15.7367 0 12.8247 0C11.1245 0 9.79667 0.78237 9.00003 1.95938C8.21131 0.790291 6.87553 0 5.17532 0C2.26331 0 0 2.28059 0 5.55022ZM1.79387 5.54271C1.79387 3.28928 3.28192 1.76386 5.27807 1.76386C6.88422 1.76386 7.78353 2.74265 8.35211 3.59164C8.59648 3.95107 8.76951 4.07353 9.00003 4.07353C9.23846 4.07353 9.38239 3.94315 9.64607 3.59164C10.2504 2.75663 11.1237 1.76386 12.7299 1.76386C14.7245 1.76386 16.2061 3.28928 16.2061 5.54271C16.2061 8.69568 12.9176 12.1846 9.17184 14.6769C9.09016 14.7314 9.03414 14.7681 9.00003 14.7681C8.96591 14.7681 8.90988 14.7314 8.83614 14.6769C5.08247 12.1846 1.79387 8.69568 1.79387 5.54271Z" fill="#2D2753"/>
</svg>
