<svg width="18" height="16" viewBox="0 0 18 16" fill="none" xmlns="http://www.w3.org/2000/svg">
<path d="M9.7347 15.4621C10.1842 15.4621 10.5424 15.2786 10.9732 14.877L17.5572 8.69564C17.8822 8.39177 18 8.0349 18 7.73103C18 7.41453 17.8854 7.07205 17.5589 6.76079L10.9732 0.627997C10.4967 0.185661 10.192 0 9.74947 0C9.0925 0 8.62313 0.519512 8.62313 1.15139V4.13451H8.41409C2.65022 4.13451 0 7.83707 0 13.8724C0 14.8902 0.445486 15.4271 1.01573 15.4271C1.44118 15.4271 1.8558 15.2965 2.17392 14.6961C3.48846 12.24 5.35904 11.3533 8.41409 11.3533H8.62313V14.355C8.62313 14.9869 9.0925 15.4621 9.7347 15.4621ZM10.2564 13.3429C10.1848 13.3429 10.1357 13.2908 10.1357 13.2143V10.1316C10.1357 9.93943 10.0496 9.85333 9.85738 9.85333H8.79178C4.97095 9.85333 2.53676 11.0842 1.53736 13.1503C1.51321 13.2089 1.49646 13.233 1.45732 13.233C1.4241 13.233 1.40143 13.2059 1.40143 13.1502C1.54044 9.20082 3.39624 5.61308 8.79178 5.61308H9.85738C10.0496 5.61308 10.1357 5.52696 10.1357 5.34217V2.1874C10.1357 2.11237 10.1863 2.06351 10.2578 2.06351C10.315 2.06351 10.3603 2.08883 10.4012 2.12504L16.0995 7.57711C16.163 7.64054 16.1856 7.67962 16.1856 7.73103C16.1856 7.78071 16.1659 7.82154 16.0995 7.88498L10.3998 13.2779C10.3471 13.3202 10.3017 13.3429 10.2564 13.3429Z" fill="#2D2753"/>
</svg>
