<svg width="25" height="16" viewBox="0 0 25 16" fill="none" xmlns="http://www.w3.org/2000/svg">
<path d="M12.4999 15.7494C19.9602 15.7494 25 9.73093 25 7.87375C25 6.01042 19.9522 0 12.4999 0C5.14991 0 0 6.01042 0 7.87375C0 9.73093 5.1419 15.7494 12.4999 15.7494ZM12.4999 14.0004C6.6857 14.0004 2.06108 9.14242 2.06108 7.87375C2.06108 6.80986 6.6857 1.74583 12.4999 1.74583C18.3044 1.74583 22.9309 6.80986 22.9309 7.87375C22.9309 9.14242 18.3044 14.0004 12.4999 14.0004ZM12.5018 12.7771C15.2285 12.7771 17.4145 10.5423 17.4145 7.87375C17.4145 5.13482 15.2285 2.9743 12.5018 2.9743C9.76095 2.9743 7.56941 5.1329 7.57912 7.87375C7.59041 10.5423 9.76095 12.7771 12.5018 12.7771ZM12.4996 9.4593C11.6185 9.4593 10.8988 8.73707 10.8988 7.87375C10.8988 7.00074 11.6185 6.28203 12.4996 6.28203C13.3813 6.28203 14.0932 7.00074 14.0932 7.87375C14.0932 8.73707 13.3813 9.4593 12.4996 9.4593Z" fill="#2D2753"/>
</svg>
